# xmcd CD database file
#
# Track frame offsets:
#	150
#	28087
#	48672
#	94497
#	118882
#	140730
#	155180
#	171355
#	197927
#	230662
#	250062
#
# Disc length: 3846 seconds
#
# Revision: 0
# Processed by: cddbd v1.5.2PL0 Copyright (c) Steve Scherf et al.
# Submitted via: CDex 1.70beta2
#
DISCID=ad0f040b
DTITLE=Andy Milne - Forward To Get Back
DYEAR=1997
DGENRE=Jazz
TTITLE0=Housework
TTITLE1=Copit
TTITLE2=Betwixt And Between
TTITLE3=Hemispheres
TTITLE4=Time Resolution
TTITLE5=Teefah
TTITLE6=Boobity
TTITLE7=New Blood Drive
TTITLE8=Waiting On-line
TTITLE9=Unconscious Knowing
TTITLE10=Summons To The Dance
EXTD=YEAR: 1997
EXTT0=
EXTT1=
EXTT2=
EXTT3=
EXTT4=
EXTT5=
EXTT6=
EXTT7=
EXTT8=
EXTT9=
EXTT10=
PLAYORDER=
